{"title":"Loosies 2011 VODRip XVID AC3-TRiNiTY","uid":6845638,"size":1327909609,"categoryP":"video","categoryS":"movies","magnet":"?xt=urn:btih:d73f5c48406fb84610a29d1080a7b1ada3b79ef8&amp;dn=Loosies+2011+VODRip+XVID+AC3-TRiNiTY&amp;tr=udp%3A%2F%2Ftracker.openbittorrent.com%3A80&amp;tr=udp%3A%2F%2Fopen.demonii.com%3A1337&amp;tr=udp%3A%2F%2Ftracker.coppersurfer.tk%3A6969&amp;tr=udp%3A%2F%2Fexodus.desync.com%3A6969","seeders":0,"leechers":1,"uploader":"TvTeam","files":4,"time":1322332910,"description":". \n &lt;a href=&quot;\nhttp://www.torrenting.com&quot; rel=&quot;nofollow&quot; target=&quot;_NEW&quot;&gt;\nhttp://www.torrenting.com&lt;/a&gt;          :     Once &amp; For all ;)\n\n\n               www . Torrenting . Com \n\n(((((((((((((= Enjoy No RAR releases =))))))))))))))))))))\n\n\n...................................NFO:....................................\n\n.\nooooooooooooo ooooooooo.    o8o  ooooo      ooo  o8o  ooooooooooooo oooooo   oooo \n8'   888   `8 `888   `Y88.  `&quot;'  `888b.     `8'  `&quot;'  8'   888   `8  `888.   .8'  \n     888       888   .d88' oooo   8 `88b.    8  oooo       888        `888. .8'   \n     888       888ooo88P'  `888   8   `88b.  8  `888       888         `888.8'    \n     888       888`88b.     888   8     `88b.8   888       888          `888'     \n     888       888  `88b.   888   8       `888   888       888           888      \n    o888o     o888o  o888o o888o o8o        `8  o888o     o888o         o888o  \n                                     ___________                    ______\n                              ______ ___  /__  /____  _____________ __  /\n                              _  __ `/_  /__  /__  / / /  ___/  __ `/  __/\n                              / /_/ /_  / _  / _  /_/ // /__ / /_/ // /\n                              \\__,_/ /_/  /_/  _\\__, / \\___/ \\__,_/ \\__/ \n                                               /____/\n\n\n\n\n\n\n\n\nEnCoDer:Allycat\n\n\n\nGeneral\nComplete name                    : Loosies 2011 VODRip XVID AC3-TRiNiTY.avi\nFormat                           : AVI\nFormat/Info                      : Audio Video Interleave\nFile size                        : 1.24 GiB\nDuration                         : 1h 28mn\nOverall bit rate                 : 1 993 Kbps\nWriting library                  : VirtualDub build 30091/release\n\nVideo\nID                               : 0\nFormat                           : MPEG-4 Visual\nFormat profile                   : Advanced Simple@L5\nFormat settings, BVOP            : 1\nFormat settings, QPel            : No\nFormat settings, GMC             : No warppoints\nFormat settings, Matrix          : Default (H.263)\nMuxing mode                      : Packed bitstream\nCodec ID                         : XVID\nCodec ID/Hint                    : XviD\nDuration                         : 1h 28mn\nBit rate                         : 1 599 Kbps\nWidth                            : 720 pixels\nHeight                           : 400 pixels\nDisplay aspect ratio             : 16:9\nFrame rate                       : 25.000 fps\nColor space                      : YUV\nChroma subsampling               : 4:2:0\nBit depth                        : 8 bits\nScan type                        : Progressive\nCompression mode                 : Lossy\nBits/(Pixel*Frame)               : 0.222\nStream size                      : 1 016 MiB (80%)\nWriting library                  : XviD 1.2.1 (UTC 2008-12-04)\n\nAudio\nID                               : 1\nFormat                           : AC-3\nFormat/Info                      : Audio Coding 3\nMode extension                   : CM (complete main)\nCodec ID                         : 2000\nDuration                         : 1h 28mn\nBit rate mode                    : Constant\nBit rate                         : 384 Kbps\nChannel(s)                       : 2 channels\nChannel positions                : Front: L R\nSampling rate                    : 48.0 KHz\nBit depth                        : 16 bits\nCompression mode                 : Lossy\nStream size                      : 244 MiB (19%)\nAlignment                        : Aligned on interleaves\nInterleave, duration             : 40 ms (1.00 video frame)\nInterleave, preload duration     : 512 ms","torrent":{"xt":"urn:btih:d73f5c48406fb84610a29d1080a7b1ada3b79ef8","amp;dn":"Loosies+2011+VODRip+XVID+AC3-TRiNiTY","amp;tr":["udp%3A%2F%2Ftracker.openbittorrent.com%3A80","udp%3A%2F%2Fopen.demonii.com%3A1337","udp%3A%2F%2Ftracker.coppersurfer.tk%3A6969","udp%3A%2F%2Fexodus.desync.com%3A6969"],"infoHash":"d73f5c48406fb84610a29d1080a7b1ada3b79ef8","infoHashBuffer":{"type":"Buffer","data":[215,63,92,72,64,111,184,70,16,162,157,16,128,167,177,173,163,183,158,248]},"announce":[],"urlList":[]}}